# xmcd
#
# Track frame offsets:
#	150
#	15067
#	31087
#	45425
#	59092
#	75737
#	89505
#	106052
#	120630
#	135540
#	151587
#	165937
#	179605
#	196200
#	209937
#	226465
#
# Disc length: 3213 seconds
#
# Revision: 1
# Processed by: cddbd v1.5.1PL2 Copyright (c) Steve Scherf et al.
# Submitted via: audiograbber 1.83.01
#
DISCID=c40c8b10
DTITLE=Strait, George - Sc2005
DYEAR=1900
DGENRE=Country
TTITLE0=Love Without End Amen
TTITLE1=All My Ex's Live In Texas
TTITLE2=Easy Come Easy Go
TTITLE3=Chair, The
TTITLE4=I Cross My Heart
TTITLE5=Amarillo By Morning
TTITLE6=You Look So Good In Love
TTITLE7=Lets Fall To Pieces Together
TTITLE8=Love Without End Amen (Vocal)
TTITLE9=All My Ex's Live In Texas (Vocal)
TTITLE10=Easy Come Easy Go (Vocal)
TTITLE11=Chair, The (Vocal)
TTITLE12=I Cross My Heart (Vocal)
TTITLE13=Amarillo By Morning (Vocal)
TTITLE14=You Look So Good In Love (Vocal)
TTITLE15=Lets Fall To Pieces Together (Vocal)
EXTD=
EXTT0=
EXTT1=
EXTT2=
EXTT3=
EXTT4=
EXTT5=
EXTT6=
EXTT7=
EXTT8=
EXTT9=
EXTT10=
EXTT11=
EXTT12=
EXTT13=
EXTT14=
EXTT15=
PLAYORDER=
